<?xml version="1.0" standalone="no"?><!DOCTYPE svg PUBLIC "-//W3C//DTD SVG 1.1//EN" "http://www.w3.org/Graphics/SVG/1.1/DTD/svg11.dtd"><svg t="1495802215078" class="icon" style="" viewBox="0 0 1024 1024" version="1.1" xmlns="http://www.w3.org/2000/svg" p-id="4278" xmlns:xlink="http://www.w3.org/1999/xlink" width="200" height="200"><defs><style type="text/css"></style></defs><path d="M559.668161 93.296873c32.489972 3.837398 65.500806 14.582113 113.14799 41.337477 115.949802 65.116043 205.649753 233.103012 126.72931 397.3631-63.361073 131.874493-272.623098 402.202315-296.101835 420.98817-31.779797-26.716478-223.037772-286.270932-277.666974-388.417357C113.481076 354.611413 202.877105 163.322739 432.72805 96.786347 471.613686 85.529979 513.107729 86.389556 559.668161 93.296873zM721.244116 412.69018c0.060375-120.237455-98.139158-218.203674-218.396055-217.884402-118.701472 0.319272-216.262462 97.395214-217.006406 215.923748C285.090549 531.098987 382.865409 630.134561 502.590188 630.274754 623.230826 630.421087 721.184765 532.940938 721.244116 412.69018z" p-id="4279"></path><path d="M612.352057 410.868695c0.864694 59.506279-46.866401 109.144816-106.22737 110.466927-60.84988 1.355881-111.311155-47.956222-111.318318-108.785635 0-59.506279 48.447409-108.321054 107.935268-108.75289C562.276568 303.366286 611.488387 351.435071 612.352057 410.868695z" p-id="4280"></path></svg>